<svg width="25" height="24" viewBox="0 0 25 24" fill="none" xmlns="http://www.w3.org/2000/svg">
<path d="M12.5 2C6.75004 2 2.08337 6.48 2.08337 12C2.08337 17.52 6.75004 22 12.5 22C18.25 22 22.9167 17.52 22.9167 12C22.9167 6.48 18.25 2 12.5 2ZM12.5 20C7.89587 20 4.16671 16.42 4.16671 12C4.16671 7.58 7.89587 4 12.5 4C17.1042 4 20.8334 7.58 20.8334 12C20.8334 16.42 17.1042 20 12.5 20Z" fill="#4E5B92"/>
<path d="M12.5 17C15.3765 17 17.7084 14.7614 17.7084 12C17.7084 9.23858 15.3765 7 12.5 7C9.62356 7 7.29171 9.23858 7.29171 12C7.29171 14.7614 9.62356 17 12.5 17Z" fill="#4E5B92"/>
</svg>
